<?xml version="1.0" standalone="no"?>
<!DOCTYPE svg PUBLIC "-//W3C//DTD SVG 20010904//EN"
 "http://www.w3.org/TR/2001/REC-SVG-20010904/DTD/svg10.dtd">
<svg version="1.0" xmlns="http://www.w3.org/2000/svg"
 width="12.000000pt" height="12.000000pt" viewBox="0 0 256.000000 256.000000"
 preserveAspectRatio="xMidYMid meet">
<metadata>
Created by potrace 1.16, written by Peter Selinger 2001-2019
</metadata>
<g transform="translate(0.000000,260.000000) scale(0.10000,-0.100000)"
fill="#000000" stroke="none">
<path d="M844 2536 c-93 -43 -170 -131 -195 -220 -8 -30 -16 -37 -52 -47 -61
-16 -94 -35 -150 -87 -71 -67 -99 -129 -105 -227 -4 -74 2 -108 82 -440 48
-198 89 -366 91 -373 6 -16 -7 -9 -60 34 -136 109 -285 139 -412 84 l-43 -19
1 -163 c1 -121 3 -153 10 -124 25 105 135 163 233 122 18 -7 133 -88 256 -180
122 -91 226 -166 231 -166 5 0 9 72 9 160 l0 161 -105 435 c-58 240 -105 443
-105 452 1 36 40 102 72 122 70 42 178 18 212 -49 12 -21 186 -715 186 -738 0
-2 11 -3 25 -3 14 0 25 2 25 5 0 3 -49 211 -110 462 -60 251 -110 468 -110
483 0 43 42 111 80 131 65 35 150 16 193 -43 14 -18 61 -195 142 -530 l121
-503 96 -3 95 -3 46 188 c25 103 74 307 108 452 57 237 67 268 94 297 62 66
169 64 225 -4 51 -62 50 -71 -55 -503 -52 -217 -95 -403 -95 -413 0 -12 6 -16
22 -14 20 3 28 28 99 316 80 330 86 344 151 378 59 31 150 8 189 -48 39 -54
36 -82 -56 -458 -62 -255 -89 -385 -96 -462 -6 -78 -30 -194 -88 -424 -73
-291 -82 -320 -110 -348 l-31 -31 -528 -3 c-290 -2 -542 0 -560 3 -22 4 -161
102 -430 304 -412 309 -418 314 -435 396 -3 11 -5 -54 -6 -145 l-1 -165 364
-273 c234 -176 383 -280 416 -293 47 -18 82 -19 628 -19 l577 0 51 24 c64 30
118 77 149 130 14 25 56 169 105 361 64 251 84 344 91 430 6 84 29 196 94 463
92 381 101 452 69 545 -18 53 -89 137 -145 172 -20 13 -62 31 -93 40 -35 10
-56 22 -56 31 0 28 -51 115 -90 154 -22 22 -63 52 -92 67 -48 25 -63 28 -153
28 -90 0 -105 -3 -154 -28 -67 -36 -129 -99 -159 -163 -12 -27 -49 -159 -81
-294 l-58 -244 -62 259 c-80 332 -94 380 -130 437 -35 55 -107 111 -170 133
-71 24 -195 20 -257 -9z"/>
</g>
</svg>
