<?xml version="1.0" standalone="no"?>
<!DOCTYPE svg PUBLIC "-//W3C//DTD SVG 20010904//EN"
 "http://www.w3.org/TR/2001/REC-SVG-20010904/DTD/svg10.dtd">
<svg version="1.0" xmlns="http://www.w3.org/2000/svg"
 width="12.000000pt" height="12.000000pt" viewBox="0 0 512.000000 477.000000"
 preserveAspectRatio="xMidYMid meet">
<metadata>
Created by potrace 1.16, written by Peter Selinger 2001-2019
</metadata>
<g transform="translate(0.000000,477.000000) scale(0.09000,-0.09000) scale(-1,1) translate(-5550,300)"
fill="#000000" stroke="none">
<path d="M2780 4754 c-195 -52 -360 -196 -431 -377 -12 -29 -83 -307 -158
-619 -76 -312 -139 -570 -142 -572 -2 -3 -55 208 -117 467 -97 408 -118 484
-154 557 -72 148 -221 274 -385 326 -76 24 -254 29 -338 10 -179 -42 -343
-172 -424 -335 -22 -46 -44 -100 -47 -121 l-6 -37 -84 -21 c-133 -33 -206 -74
-305 -172 -135 -133 -189 -264 -189 -454 0 -95 8 -132 165 -778 l166 -679 9
-173 9 -173 150 -599 c175 -692 185 -719 302 -835 46 -45 93 -80 141 -104 139
-68 76 -65 1209 -65 994 0 1028 1 1104 20 43 11 106 35 140 54 103 56 1483
1094 1543 1160 120 132 173 261 180 439 6 149 -7 217 -64 335 -108 223 -327
367 -579 379 -190 9 -335 -44 -544 -202 -63 -47 -117 -88 -122 -90 -4 -3 -3 9
1 27 5 18 80 326 167 683 l158 650 0 135 c0 156 -18 230 -82 339 -93 157 -246
263 -444 305 -23 5 -30 16 -52 88 -36 113 -88 197 -173 278 -78 74 -177 129
-279 155 -76 19 -251 19 -325 -1z m303 -367 c94 -56 151 -156 150 -267 0 -36
-70 -341 -202 -889 -110 -458 -201 -837 -201 -842 0 -5 18 -9 40 -9 22 0 40 2
40 5 0 29 317 1311 331 1342 28 58 108 128 171 149 64 21 157 15 213 -14 54
-27 110 -85 137 -141 46 -94 43 -110 -112 -751 -78 -322 -164 -679 -191 -793
l-49 -209 0 -305 c0 -258 2 -304 14 -300 8 3 202 147 433 319 230 173 438 322
463 332 68 27 137 31 204 12 106 -31 177 -92 222 -190 24 -52 26 -67 22 -140
-5 -91 -28 -149 -84 -214 -39 -46 -1398 -1063 -1471 -1102 l-47 -25 -996 -3
c-1105 -3 -1041 -6 -1114 64 -20 19 -43 48 -51 63 -8 16 -80 291 -160 611
-143 573 -146 585 -155 739 -6 86 -14 179 -20 206 -5 28 -79 337 -164 688 -89
366 -156 659 -156 686 0 104 65 207 164 259 73 38 179 38 252 0 53 -28 112
-86 139 -137 12 -24 285 -1120 285 -1145 0 -3 18 -6 40 -6 22 0 40 4 40 9 0 5
-81 346 -181 758 -157 650 -180 755 -174 798 13 103 71 187 159 233 43 22 64
27 131 27 70 0 87 -4 134 -30 59 -32 101 -78 129 -140 10 -22 106 -403 213
-847 l194 -808 175 0 175 0 214 893 c118 490 220 913 227 938 25 84 100 165
181 195 62 23 180 13 236 -19z"/>
</g>
</svg>
